<svg xmlns="http://www.w3.org/2000/svg" width="9" height="12" viewBox="0 0 9 12" fill="none">
  <path d="M0.00263482 0.784041L0.0479071 11.2212C0.0486726 11.3269 0.0761468 11.4303 0.127372 11.5205C0.178597 11.6106 0.251633 11.6839 0.338619 11.7327C0.425605 11.7814 0.523247 11.8036 0.621034 11.7969C0.718822 11.7902 0.813051 11.7549 0.893581 11.6948L7.86065 6.44586C8.14952 6.22832 8.14726 5.70762 7.85651 5.49202L0.844171 0.303751C0.763289 0.243696 0.668706 0.208682 0.570701 0.202515C0.472695 0.196348 0.375014 0.219263 0.28827 0.26877C0.201526 0.318277 0.129036 0.392484 0.0786785 0.483326C0.0283208 0.574169 0.00202112 0.678174 0.00263482 0.784041Z" fill="white"/>
</svg>