<svg xmlns="http://www.w3.org/2000/svg" width="12" height="10" viewBox="0 0 12 10" fill="none">
  <path d="M11.2449 0.929346L0.807836 0.990244C0.702166 0.991168 0.598745 1.0188 0.508703 1.07016C0.41866 1.12152 0.345408 1.19466 0.296829 1.28172C0.248249 1.36878 0.226183 1.46646 0.233007 1.56423C0.23983 1.66201 0.275284 1.75619 0.335551 1.83663L5.59488 8.79583C5.81285 9.08437 6.33354 9.08133 6.54871 8.79026L11.7265 1.77016C11.7864 1.68919 11.8213 1.59456 11.8273 1.49654C11.8333 1.39853 11.8103 1.30088 11.7606 1.21421C11.711 1.12754 11.6367 1.05516 11.5458 1.00494C11.4548 0.954718 11.3508 0.928574 11.2449 0.929346Z" fill="white"/>
</svg>